<svg width="1457" height="1213" viewBox="0 0 1457 1213" fill="none" xmlns="http://www.w3.org/2000/svg">
<g clip-path="url(#clip0_963_321)">
<path d="M184.075 523.388C195.382 570.235 215.642 607.835 245.732 636.532C275.82 665.227 315.706 684.991 366.22 696.22C316.99 707.532 277.033 727.133 246.598 755.386C216.164 783.637 195.278 820.513 184.149 866.333C173.287 820.719 152.488 783.953 122.062 755.69C91.6294 727.423 51.5919 707.684 2.2959 696.084C52.6633 685.168 92.3813 665.426 122.376 636.681C152.374 607.932 172.614 570.209 184.075 523.388Z" stroke="#404040"/>
<path d="M547.921 523.388C559.227 570.235 579.488 607.835 609.578 636.532C639.666 665.227 679.552 684.991 730.065 696.22C680.836 707.532 640.879 727.133 610.443 755.386C580.01 783.637 559.124 820.513 547.995 866.333C537.132 820.719 516.334 783.953 485.907 755.69C455.475 727.423 415.438 707.684 366.142 696.084C416.509 685.168 456.227 665.426 486.222 636.681C516.22 607.932 536.459 570.209 547.921 523.388Z" stroke="#404040"/>
<path d="M912.71 523.388C924.017 570.235 944.277 607.835 974.367 636.532C1004.46 665.227 1044.34 684.991 1094.85 696.22C1045.62 707.532 1005.67 727.133 975.232 755.386C944.799 783.637 923.913 820.513 912.784 866.333C901.922 820.719 881.123 783.953 850.696 755.69C820.264 727.423 780.227 707.684 730.931 696.084C781.298 685.168 821.016 665.426 851.011 636.681C881.009 607.932 901.248 570.209 912.71 523.388Z" stroke="#404040"/>
<path d="M1276.56 523.388C1287.86 570.235 1308.12 607.835 1338.21 636.532C1368.3 665.227 1408.19 684.991 1458.7 696.22C1409.47 707.532 1369.52 727.133 1339.08 755.386C1308.65 783.637 1287.76 820.513 1276.63 866.333C1265.77 820.719 1244.97 783.953 1214.54 755.69C1184.11 727.423 1144.07 707.684 1094.78 696.084C1145.15 685.168 1184.86 665.426 1214.86 636.681C1244.86 607.932 1265.1 570.209 1276.56 523.388Z" stroke="#404040"/>
<path d="M184.075 867.883C195.382 914.73 215.642 952.33 245.732 981.027C275.82 1009.72 315.706 1029.49 366.22 1040.71C316.99 1052.03 277.033 1071.63 246.598 1099.88C216.164 1128.13 195.278 1165.01 184.149 1210.83C173.287 1165.21 152.488 1128.45 122.062 1100.19C91.6294 1071.92 51.5919 1052.18 2.2959 1040.58C52.6633 1029.66 92.3813 1009.92 122.376 981.176C152.374 952.427 172.614 914.704 184.075 867.883Z" stroke="#404040"/>
<path d="M547.921 867.883C559.227 914.73 579.488 952.33 609.578 981.027C639.666 1009.72 679.552 1029.49 730.065 1040.71C680.836 1052.03 640.879 1071.63 610.443 1099.88C580.01 1128.13 559.124 1165.01 547.995 1210.83C537.132 1165.21 516.334 1128.45 485.907 1100.19C455.475 1071.92 415.438 1052.18 366.142 1040.58C416.509 1029.66 456.227 1009.92 486.222 981.176C516.22 952.427 536.459 914.704 547.921 867.883Z" stroke="#404040"/>
<path d="M912.71 867.883C924.017 914.73 944.277 952.33 974.367 981.027C1004.46 1009.72 1044.34 1029.49 1094.85 1040.71C1045.62 1052.03 1005.67 1071.63 975.232 1099.88C944.799 1128.13 923.913 1165.01 912.784 1210.83C901.922 1165.21 881.123 1128.45 850.696 1100.19C820.264 1071.92 780.227 1052.18 730.931 1040.58C781.298 1029.66 821.016 1009.92 851.011 981.176C881.009 952.427 901.248 914.704 912.71 867.883Z" stroke="#404040"/>
<path d="M1276.56 867.883C1287.86 914.73 1308.12 952.33 1338.21 981.027C1368.3 1009.72 1408.19 1029.49 1458.7 1040.71C1409.47 1052.03 1369.52 1071.63 1339.08 1099.88C1308.65 1128.13 1287.76 1165.01 1276.63 1210.83C1265.77 1165.21 1244.97 1128.45 1214.54 1100.19C1184.11 1071.92 1144.07 1052.18 1094.78 1040.58C1145.15 1029.66 1184.86 1009.92 1214.86 981.176C1244.86 952.427 1265.1 914.704 1276.56 867.883Z" stroke="#404040"/>
</g>
<defs>
<clipPath id="clip0_963_321">
<rect width="1457" height="1213" fill="white"/>
</clipPath>
</defs>
</svg>
