<svg width="30" height="30" viewBox="0 0 30 30" fill="none" xmlns="http://www.w3.org/2000/svg">
<path opacity="0.1" d="M0 0H30V30H0V0Z" fill="white"/>
<path d="M22.5 10.5L21.01 11.99L18.01 8.99L19.5 7.5C19.92 7.08 20.46 6.88 21 6.88C21.54 6.88 22.08 7.08 22.5 7.5C23.33 8.33 23.33 9.67 22.5 10.5Z" fill="white"/>
<path d="M20.31 12.7L9.5 23.5C8.67 24.33 7.33 24.33 6.5 23.5C5.67 22.67 5.67 21.33 6.5 20.5L17.31 9.7L20.31 12.7Z" fill="white"/>
<path d="M12.95 6.5L13.36 5.11C13.4 4.98 13.36 4.84 13.27 4.74C13.18 4.64 13.02 4.6 12.89 4.64L11.5 5.05L10.11 4.64C9.98002 4.6 9.84002 4.64 9.74002 4.73C9.64002 4.83 9.61002 4.97 9.65002 5.1L10.05 6.5L9.64002 7.89C9.60002 8.02 9.64002 8.16 9.73002 8.26C9.83002 8.36 9.97002 8.39 10.1 8.35L11.5 7.95L12.89 8.36C12.93 8.37 12.96 8.38 13 8.38C13.1 8.38 13.19 8.34 13.27 8.27C13.37 8.17 13.4 8.03 13.36 7.9L12.95 6.5Z" fill="white"/>
<path d="M8.95002 12.5L9.36002 11.11C9.40002 10.98 9.36002 10.84 9.27002 10.74C9.17002 10.64 9.03002 10.61 8.90002 10.65L7.50002 11.05L6.11002 10.64C5.98002 10.6 5.84002 10.64 5.74002 10.73C5.64002 10.83 5.61002 10.97 5.65002 11.1L6.05002 12.5L5.64002 13.89C5.60002 14.02 5.64002 14.16 5.73002 14.26C5.83002 14.36 5.97002 14.39 6.10002 14.35L7.49002 13.94L8.88002 14.35C8.91002 14.36 8.95002 14.36 8.99002 14.36C9.09002 14.36 9.18002 14.32 9.26002 14.25C9.36002 14.15 9.39002 14.01 9.35002 13.88L8.95002 12.5Z" fill="white"/>
<path d="M23.95 17.5L24.36 16.11C24.4 15.98 24.36 15.84 24.27 15.74C24.17 15.64 24.03 15.61 23.9 15.65L22.51 16.06L21.12 15.65C20.99 15.61 20.85 15.65 20.75 15.74C20.65 15.84 20.62 15.98 20.66 16.11L21.07 17.5L20.66 18.89C20.62 19.02 20.66 19.16 20.75 19.26C20.85 19.36 20.99 19.39 21.12 19.35L22.51 18.94L23.9 19.35C23.93 19.36 23.97 19.36 24.01 19.36C24.11 19.36 24.2 19.32 24.28 19.25C24.38 19.15 24.41 19.01 24.37 18.88L23.95 17.5Z" fill="white"/>
</svg>
