<svg width="36" height="36" viewBox="0 0 36 36" fill="none" xmlns="http://www.w3.org/2000/svg">
<path d="M23.073 17.9999C23.073 20.8049 20.8064 23.0716 18.0014 23.0716C15.1964 23.0716 12.9297 20.8049 12.9297 17.9999C12.9297 15.1949 15.1964 12.9282 18.0014 12.9282C20.8064 12.9282 23.073 15.1949 23.073 17.9999Z" stroke="#9747FF" stroke-width="2" stroke-linecap="round" stroke-linejoin="round"/>
<path d="M17.9988 29.7159C22.9996 29.7159 27.6605 26.7692 30.9046 21.6692C32.1796 19.6717 32.1796 16.3142 30.9046 14.3167C27.6605 9.21669 22.9996 6.27002 17.9988 6.27002C12.998 6.27002 8.33714 9.21669 5.09297 14.3167C3.81797 16.3142 3.81797 19.6717 5.09297 21.6692C8.33714 26.7692 12.998 29.7159 17.9988 29.7159Z" stroke="#9747FF" stroke-width="2" stroke-linecap="round" stroke-linejoin="round"/>
</svg>
